<svg width="71" height="71" viewBox="0 0 71 71" fill="none" xmlns="http://www.w3.org/2000/svg">
<g id="050-barometer">
<g id="Group">
<g id="Group_2">
<g id="Group_3">
<path id="Vector" d="M35.5 17.75C36.3176 17.75 36.9792 17.0884 36.9792 16.2708V13.3125C36.9792 12.4949 36.3176 11.8333 35.5 11.8333C34.6824 11.8333 34.0208 12.4949 34.0208 13.3125V16.2708C34.0208 17.0884 34.6824 17.75 35.5 17.75Z" fill="white"/>
<path id="Vector_2" d="M22.7291 16.3388C22.319 15.6295 21.4131 15.3854 20.7083 15.7971C20.0005 16.2059 19.7578 17.1102 20.1666 17.818L21.6458 20.3791C21.9203 20.8544 22.4173 21.1187 22.9286 21.1187C23.18 21.1187 23.4342 21.0552 23.6667 20.9208C24.3745 20.512 24.6172 19.6077 24.2084 18.8999L22.7291 16.3388Z" fill="white"/>
<path id="Vector_3" d="M14.4624 27.5624L11.9012 26.0832C11.1905 25.673 10.2892 25.9156 9.88037 26.6248C9.47157 27.3326 9.71424 28.2369 10.422 28.6457L12.9831 30.1249C13.2157 30.2593 13.4699 30.3228 13.7213 30.3228C14.2327 30.3228 14.7296 30.0585 15.004 29.5832C15.4128 28.8755 15.1701 27.9712 14.4624 27.5624Z" fill="white"/>
<path id="Vector_4" d="M60.5779 54.1875L58.0168 52.7082C57.3075 52.298 56.4034 52.5407 55.996 53.2499C55.5872 53.9577 55.8298 54.862 56.5376 55.2708L59.0987 56.75C59.3313 56.8844 59.5855 56.9479 59.8369 56.9479C60.3483 56.9479 60.8452 56.6836 61.1196 56.2083C61.5284 55.5005 61.2857 54.5963 60.5779 54.1875Z" fill="white"/>
<path id="Vector_5" d="M11.8333 41.4168C11.8333 40.5992 11.1717 39.9376 10.3541 39.9376H7.39578C6.57817 39.9376 5.91656 40.5992 5.91656 41.4168C5.91656 42.2344 6.57817 42.896 7.39578 42.896H10.3541C11.1718 42.8959 11.8333 42.2344 11.8333 41.4168Z" fill="white"/>
<path id="Vector_6" d="M65.0833 41.4168C65.0833 40.5992 64.4217 39.9376 63.6041 39.9376H60.6458C59.8282 39.9376 59.1666 40.5992 59.1666 41.4168C59.1666 42.2344 59.8282 42.896 60.6458 42.896H63.6041C64.4218 42.8959 65.0833 42.2344 65.0833 41.4168Z" fill="white"/>
<path id="Vector_7" d="M12.9831 52.7084L10.422 54.1875C9.71424 54.5963 9.47157 55.5006 9.88037 56.2084C10.1548 56.6836 10.6518 56.9479 11.1631 56.9479C11.4145 56.9479 11.6687 56.8844 11.9012 56.75L14.4624 55.2708C15.1701 54.862 15.4128 53.9577 15.004 53.2499C14.5938 52.5407 13.6852 52.298 12.9831 52.7084Z" fill="white"/>
<path id="Vector_8" d="M57.2787 30.323C57.5301 30.323 57.7843 30.2595 58.0168 30.1251L60.5779 28.6459C61.2857 28.2371 61.5284 27.3329 61.1196 26.6251C60.7079 25.9158 59.8022 25.6731 59.0987 26.0834L56.5376 27.5626C55.8298 27.9714 55.5872 28.8757 55.996 29.5835C56.2704 30.0586 56.7674 30.323 57.2787 30.323Z" fill="white"/>
<path id="Vector_9" d="M50.2917 15.797C49.5839 15.3853 48.6782 15.6295 48.2708 16.3387L46.7916 18.8998C46.3828 19.6076 46.6255 20.5119 47.3333 20.9207C47.5658 21.0551 47.82 21.1186 48.0714 21.1186C48.5828 21.1186 49.0797 20.8543 49.3541 20.379L50.8333 17.8179C51.2421 17.11 50.9995 16.2058 50.2917 15.797Z" fill="white"/>
<path id="Vector_10" d="M35.5 5.91675C15.9256 5.91675 0 21.8424 0 41.4167C0 47.345 1.49363 53.2169 4.32046 58.3968C4.71193 59.1134 5.609 59.3763 6.32829 58.9862C7.04481 58.5947 7.30912 57.6963 6.91765 56.9784C4.32767 52.2332 2.95829 46.851 2.95829 41.4167C2.95829 23.4732 17.5564 8.87504 35.5 8.87504C53.4436 8.87504 68.0417 23.4732 68.0417 41.4167C68.0417 46.851 66.6723 52.2332 64.0824 56.9784C63.6909 57.6963 63.9552 58.5947 64.6717 58.9862C64.897 59.1089 65.1397 59.1667 65.3795 59.1667C65.9038 59.1667 66.4109 58.888 66.6795 58.3968C69.5064 53.2168 71 47.345 71 41.4167C71 21.8422 55.0744 5.91675 35.5 5.91675Z" fill="white"/>
<path id="Vector_11" d="M36.9734 25.0159C36.907 24.2532 36.267 23.6667 35.5 23.6667C34.733 23.6667 34.093 24.2532 34.0266 25.0159L31.402 54.9199C30.2392 56.0351 29.5833 57.5489 29.5833 59.1667C29.5833 62.4298 32.2368 65.0835 35.5 65.0835C38.7632 65.0835 41.4167 62.43 41.4167 59.1667C41.4167 57.5489 40.7609 56.0351 39.598 54.9199L36.9734 25.0159ZM35.5 62.125C33.8692 62.125 32.5417 60.7975 32.5417 59.1667C32.5417 58.2494 32.9721 57.3958 33.7204 56.8237C34.0512 56.5709 34.2607 56.191 34.2967 55.7779L35.5 42.0667L36.7033 55.7779C36.7393 56.191 36.9488 56.5709 37.2796 56.8237C38.0278 57.3958 38.4583 58.2494 38.4583 59.1667C38.4583 60.7975 37.1308 62.125 35.5 62.125Z" fill="white"/>
</g>
</g>
</g>
</g>
</svg>
