<svg xmlns="http://www.w3.org/2000/svg" width="38" height="36" viewBox="0 0 38 36" fill="none">
<path d="M16.2 21.6H1.8V32.4C1.8 33.3548 2.17928 34.2705 2.85442 34.9456C3.52955 35.6207 4.44522 36 5.4 36H30.6C31.5548 36 32.4705 35.6207 33.1456 34.9456C33.8207 34.2705 34.2 33.3548 34.2 32.4V21.6H19.8V25.2H16.2V21.6ZM16.2 19.8H0V9C0 7.02 1.62 5.4 3.6 5.4H10.8V3.6C10.8 2.64522 11.1793 1.72955 11.8544 1.05442C12.5295 0.379285 13.4452 0 14.4 0L21.6 0C22.5548 0 23.4705 0.379285 24.1456 1.05442C24.8207 1.72955 25.2 2.64522 25.2 3.6V5.4H32.4C33.3548 5.4 34.2705 5.77928 34.9456 6.45442C35.6207 7.12955 36 8.04522 36 9V19.8H19.8V16.2H16.2V19.8ZM21.6 5.4V3.6H14.4V5.4H21.6Z" fill="#5F5F5F"/>
<circle cx="35" cy="5" r="3" fill="#FF6838"/>
</svg>