<svg xmlns="http://www.w3.org/2000/svg" width="28" height="28" viewBox="0 0 28 28" fill="none">
<path d="M11.5889 15.5167L13.6111 17.5389C13.8963 17.8241 14.2593 17.9667 14.7 17.9667C15.1407 17.9667 15.5037 17.8241 15.7889 17.5389L20.2222 13.1056V14.0389C20.2222 14.4796 20.3716 14.8426 20.6702 15.1278C20.9689 15.413 21.3381 15.5556 21.7778 15.5556C22.2185 15.5556 22.5882 15.4062 22.8869 15.1076C23.1856 14.8089 23.3344 14.4397 23.3333 14V9.33333C23.3333 8.89259 23.184 8.52289 22.8853 8.22422C22.5867 7.92556 22.2175 7.77674 21.7778 7.77778H17.0722C16.6315 7.77778 16.2685 7.92711 15.9833 8.22578C15.6981 8.52445 15.5556 8.89363 15.5556 9.33333C15.5556 9.77407 15.7049 10.1438 16.0036 10.4424C16.3022 10.7411 16.6714 10.8899 17.1111 10.8889H18.0056L14.7 14.2333L12.6778 12.2111C12.3926 11.9 12.0296 11.7444 11.5889 11.7444C11.1481 11.7444 10.7852 11.9 10.5 12.2111L5.75556 16.9556C5.44445 17.2407 5.28889 17.6037 5.28889 18.0444C5.28889 18.4852 5.44445 18.8481 5.75556 19.1333C6.04074 19.4444 6.40371 19.6 6.84445 19.6C7.28519 19.6 7.64815 19.4444 7.93334 19.1333L11.5889 15.5167ZM3.11111 28C2.25556 28 1.52289 27.6956 0.913113 27.0869C0.303336 26.4781 -0.0010344 25.7455 2.64101e-06 24.8889V3.11111C2.64101e-06 2.25556 0.304892 1.52289 0.914669 0.913113C1.52445 0.303336 2.25659 -0.0010344 3.11111 2.64101e-06H24.8889C25.7444 2.64101e-06 26.4771 0.304891 27.0869 0.914669C27.6967 1.52445 28.001 2.25659 28 3.11111V24.8889C28 25.7444 27.6951 26.4771 27.0853 27.0869C26.4756 27.6967 25.7434 28.001 24.8889 28H3.11111Z" fill="#5F5F5F"/>
</svg>
