<svg xmlns="http://www.w3.org/2000/svg" width="44" height="71" viewBox="0 0 44 71" fill="none">
<path d="M42.4044 36.7463C37.6343 19.622 23.5956 1.34618 22.8819 0.422811C22.7705 0.289594 22.6348 0.183193 22.4836 0.110395C22.3323 0.0375974 22.1689 0 22.0036 0C21.8383 0 21.6749 0.0375974 21.5236 0.110395C21.3724 0.183193 21.2367 0.289594 21.1253 0.422811C20.4116 1.34618 6.37051 19.6194 1.59803 36.7463C0.619989 40.2587 0 43.7292 0 46.9846C0 60.2265 9.87176 71 22.0024 71C34.133 71 44 60.2265 44 46.9846C44.0024 43.7292 43.3824 40.2613 42.4044 36.7463V36.7463ZM22.0048 68.4922C11.1406 68.4922 2.30213 58.8441 2.30213 46.9872C2.30213 43.7686 2.95817 40.2902 4.0059 36.7489C8.18001 22.6492 18.864 7.48446 22.0048 3.22176C25.1456 7.48446 35.8296 22.6492 39.9989 36.7489C41.0466 40.2928 41.7027 43.7686 41.7027 46.9872C41.7027 58.8441 32.8666 68.4922 22.0048 68.4922Z" fill="#EAEAEC"/>
<path d="M9.67211 36.7453C8.47058 40.0768 7.66796 43.4135 7.66796 46.4511C7.66796 50.6014 9.1783 54.5817 11.8667 57.5164C14.5551 60.4511 18.2014 62.0998 22.0034 62.0998C25.8054 62.0998 29.4517 60.4511 32.1401 57.5164C34.8285 54.5817 36.3388 50.6014 36.3388 46.4511C36.3388 43.4135 35.5362 40.0768 34.3347 36.7453H9.67211Z" fill="#EAEAEC"/>
</svg>