<svg xmlns="http://www.w3.org/2000/svg" width="28" height="28" viewBox="0 0 28 28" fill="none">
<path d="M19.6358 20.65C19.3437 20.313 19.1977 19.9308 19.1977 19.5036C19.1977 19.0763 19.3437 18.7196 19.6358 18.4333L22.5832 15.5556H11.1522C10.7008 15.5556 10.3222 15.4062 10.0163 15.1076C9.71038 14.8089 9.55796 14.4397 9.55903 14C9.55903 13.5593 9.71197 13.1896 10.0179 12.8909C10.3237 12.5922 10.7019 12.4434 11.1522 12.4444H22.5832L19.6358 9.56667C19.3172 9.25556 19.1579 8.88585 19.1579 8.45756C19.1579 8.02926 19.3172 7.66007 19.6358 7.35C19.9279 7.03889 20.2933 6.88333 20.7319 6.88333C21.1706 6.88333 21.5354 7.02593 21.8264 7.31111L27.5619 12.9111C27.7212 13.0667 27.8343 13.2352 27.9012 13.4167C27.9681 13.5981 28.001 13.7926 28 14C28 14.2074 27.9671 14.4019 27.9012 14.5833C27.8353 14.7648 27.7222 14.9333 27.5619 15.0889L21.8264 20.6889C21.4813 21.0259 21.1026 21.1753 20.6905 21.1369C20.2784 21.0985 19.9268 20.9362 19.6358 20.65ZM3.18634 28C2.3101 28 1.55972 27.6951 0.935194 27.0853C0.310671 26.4756 -0.00105941 25.7434 2.70487e-06 24.8889V3.11111C2.70487e-06 2.25556 0.312264 1.52289 0.936787 0.913113C1.56131 0.303336 2.31116 -0.0010344 3.18634 2.64101e-06H12.7454C13.1968 2.64101e-06 13.5754 0.149336 13.8813 0.448003C14.1872 0.746669 14.3396 1.11585 14.3385 1.55556C14.3385 1.9963 14.1856 2.366 13.8797 2.66467C13.5738 2.96333 13.1957 3.11215 12.7454 3.11111H3.18634V24.8889H12.7454C13.1968 24.8889 13.5754 25.0382 13.8813 25.3369C14.1872 25.6356 14.3396 26.0047 14.3385 26.4444C14.3385 26.8852 14.1856 27.2549 13.8797 27.5535C13.5738 27.8522 13.1957 28.001 12.7454 28H3.18634Z" fill="#CCCCCC"/>
</svg>