<svg width="44" height="71" viewBox="0 0 44 71" fill="none" xmlns="http://www.w3.org/2000/svg">
<g id="Group">
<path id="Vector" d="M22 3.97613e-08C25.6519 -0.000244416 29.1655 1.12672 31.8204 3.1498C34.4752 5.17289 36.0701 7.93877 36.278 10.8803L36.3 11.537L36.3044 39.7653L36.6564 40.0103C40.7568 42.9596 43.3378 47.0419 43.89 51.4514L43.9736 52.346L44 53.2476C44.0006 56.172 43.1056 59.0513 41.3945 61.6294C39.6835 64.2074 37.2093 66.4045 34.1921 68.0251C31.1748 69.6458 27.7079 70.6399 24.0997 70.919C20.4915 71.1981 16.8537 70.7536 13.5097 69.625C10.1657 68.4964 7.21919 66.7187 4.93209 64.4499C2.64499 62.1811 1.08818 59.4915 0.40006 56.6202C-0.28806 53.749 -0.0861627 50.7851 0.9878 47.992C2.06176 45.1989 3.97451 42.6631 6.556 40.6102L7.348 40.0067L7.6956 39.7653L7.7 11.537C7.69927 8.70175 8.99263 5.96556 11.3332 3.85067C13.6738 1.73578 16.8977 0.390289 20.3896 0.0709968L21.1904 0.0177497L22 3.97613e-08ZM22 5.32476C20.0669 5.3249 18.2045 5.91166 16.7829 6.96851C15.3613 8.02536 14.4844 9.47496 14.3264 11.0294L14.3 11.537V42.3993L12.9404 43.198C10.3428 44.7224 8.401 46.864 7.38688 49.323C6.37276 51.7819 6.33706 54.4352 7.28477 56.9113C8.23248 59.3874 10.1162 61.5625 12.6722 63.132C15.2281 64.7016 18.3285 65.5871 21.5392 65.6645C24.7499 65.7419 27.9102 65.0074 30.5779 63.5638C33.2455 62.1202 35.2868 60.0397 36.4161 57.6137C37.5454 55.1876 37.7061 52.5374 36.8758 50.034C36.0455 47.5306 34.2658 45.2993 31.7856 43.6524L31.0596 43.2016L29.7088 42.4029L29.7 11.537C29.7 9.8894 28.8888 8.3093 27.4447 7.14428C26.0007 5.97926 24.0422 5.32476 22 5.32476Z" fill="#EAEAEC"/>
<path id="Vector_2" d="M22 20.7073C22.8749 20.7073 23.7139 20.9919 24.3325 21.4983C24.9511 22.0048 25.2987 22.6916 25.2987 23.4079V44.5259C27.8059 45.1712 29.9481 46.53 31.3374 48.3564C32.7267 50.1829 33.2714 52.3562 32.8727 54.4829C32.474 56.6096 31.1584 58.5492 29.1639 59.9505C27.1695 61.3518 24.6282 62.1222 22 62.1222C19.3718 62.1222 16.8305 61.3518 14.8361 59.9505C12.8416 58.5492 11.526 56.6096 11.1273 54.4829C10.7286 52.3562 11.2733 50.1829 12.6626 48.3564C14.0519 46.53 16.1941 45.1712 18.7013 44.5259V23.4079C18.7013 22.6916 19.0489 22.0048 19.6675 21.4983C20.2861 20.9919 21.1251 20.7073 22 20.7073Z" fill="#EAEAEC"/>
</g>
</svg>
