<svg width="20" height="21" viewBox="0 0 20 21" fill="none" xmlns="http://www.w3.org/2000/svg">
<path id="Vector" d="M20 4.78572C20 6.62381 18.2556 8.11905 16.1111 8.11905C13.9667 8.11905 12.2222 6.62381 12.2222 4.78572C12.2222 2.94762 13.9667 1.45239 16.1111 1.45239C18.2556 1.45239 20 2.94762 20 4.78572ZM17.7778 9.82381C17.2222 9.94762 16.6667 10.0238 16.1111 10.0238C14.4912 10.0213 12.9386 9.46862 11.7931 8.48683C10.6477 7.50504 10.0029 6.17417 10 4.78572C10 3.38572 10.6444 2.11905 11.6667 1.1762C11.465 0.964329 11.2108 0.793691 10.9225 0.676714C10.6341 0.559736 10.319 0.499367 10 0.500005C8.77778 0.500005 7.77778 1.35715 7.77778 2.40477V2.68096C4.47778 3.51905 2.22222 6.11905 2.22222 9.07143V14.7857L0 16.6905V17.6429H20V16.6905L17.7778 14.7857V9.82381ZM10 20.5C11.2333 20.5 12.2222 19.6524 12.2222 18.5952H7.77778C7.77778 19.1004 8.0119 19.5849 8.42865 19.9421C8.8454 20.2993 9.41063 20.5 10 20.5Z" fill="white"/>
</svg>
