<svg width="20" height="21" viewBox="0 0 20 21" fill="none" xmlns="http://www.w3.org/2000/svg">
<path id="Vector" d="M10.1 20.5C8.7 20.5 7.38767 20.2333 6.163 19.7C4.93833 19.1667 3.87167 18.4457 2.963 17.537C2.05433 16.629 1.33333 15.5623 0.8 14.337C0.266667 13.1117 0 11.7993 0 10.4C0 7.96667 0.775 5.82067 2.325 3.962C3.875 2.10333 5.85 0.949333 8.25 0.5C7.95 2.15 8.04167 3.76267 8.525 5.338C9.00833 6.91333 9.84167 8.29233 11.025 9.475C12.2083 10.6583 13.5877 11.4917 15.163 11.975C16.7383 12.4583 18.3507 12.55 20 12.25C19.5667 14.65 18.4167 16.625 16.55 18.175C14.6833 19.725 12.5333 20.5 10.1 20.5Z" fill="white"/>
</svg>
