<svg width="20" height="21" viewBox="0 0 20 21" fill="none" xmlns="http://www.w3.org/2000/svg">
<path id="Vector" d="M10 13.1316C8.79923 13.1316 7.77858 12.8246 6.93804 12.2105C6.0975 11.5965 5.67723 10.8509 5.67723 9.97368V3.65789C5.67723 2.7807 6.0975 2.03509 6.93804 1.42105C7.77858 0.807018 8.79923 0.5 10 0.5C11.2008 0.5 12.2214 0.807018 13.062 1.42105C13.9025 2.03509 14.3228 2.7807 14.3228 3.65789V9.97368C14.3228 10.8509 13.9025 11.5965 13.062 12.2105C12.2214 12.8246 11.2008 13.1316 10 13.1316ZM10 20.5C9.59174 20.5 9.24928 20.3989 8.97262 20.1968C8.69597 19.9947 8.55812 19.7449 8.55908 19.4474V17.2368C6.32565 17.0263 4.42843 16.3509 2.86744 15.2105C1.30644 14.0702 0.357829 12.7018 0.0216138 11.1053C-0.0504323 10.807 0.0576374 10.5439 0.345822 10.3158C0.634006 10.0877 1.01825 9.97368 1.49856 9.97368C1.83477 9.97368 2.13497 10.0656 2.39914 10.2495C2.6633 10.4333 2.83141 10.6572 2.90346 10.9211C3.21566 12.1491 4.03218 13.1754 5.35303 14C6.67387 14.8246 8.22286 15.2368 10 15.2368C11.7771 15.2368 13.3261 14.8246 14.647 14C15.9678 13.1754 16.7843 12.1491 17.0965 10.9211C17.1686 10.6579 17.3425 10.434 17.6182 10.2495C17.8939 10.0649 18.2003 9.97298 18.5375 9.97368C18.9938 9.97368 19.366 10.0877 19.6542 10.3158C19.9424 10.5439 20.0504 10.807 19.9784 11.1053C19.6422 12.7018 18.6936 14.0702 17.1326 15.2105C15.5716 16.3509 13.6744 17.0263 11.4409 17.2368V19.4474C11.4409 19.7456 11.3026 19.9958 11.0259 20.1979C10.7493 20.4 10.4073 20.5007 10 20.5Z" fill="white"/>
</svg>
