<svg width="28" height="20" viewBox="0 0 28 20" fill="none" xmlns="http://www.w3.org/2000/svg">
<path id="Vector" d="M7 20C5.0697 20 3.42067 19.3437 2.05291 18.0312C0.684303 16.7187 0 15.1146 0 13.2187C0 11.5937 0.498485 10.1458 1.49545 8.875C2.49242 7.60417 3.79697 6.79167 5.40909 6.4375C5.93939 4.52083 7 2.96875 8.59091 1.78125C10.1818 0.59375 11.9848 0 14 0C16.4818 0 18.5869 0.84875 20.3153 2.54625C22.0445 4.24458 22.9091 6.3125 22.9091 8.75C24.3727 8.91667 25.5873 9.53625 26.5529 10.6088C27.5176 11.6821 28 12.9375 28 14.375C28 15.9375 27.4434 17.2658 26.3302 18.36C25.2161 19.4533 23.8636 20 22.2727 20H7Z" fill="#B3E9FF"/>
</svg>
